<?xml version="1.0" standalone="no"?>
<!DOCTYPE svg PUBLIC "-//W3C//DTD SVG 20010904//EN"
 "http://www.w3.org/TR/2001/REC-SVG-20010904/DTD/svg10.dtd">
<svg version="1.0" xmlns="http://www.w3.org/2000/svg"
 width="185.000000pt" height="185.000000pt" viewBox="0 0 185.000000 185.000000"
 preserveAspectRatio="xMidYMid meet">
<metadata>
Created by potrace 1.11, written by Peter Selinger 2001-2013
</metadata>
<g transform="translate(0.000000,185.000000) scale(0.100000,-0.100000)"
fill="#000000" stroke="none">
<path d="M1260 1579 c0 -5 5 -7 10 -4 6 3 10 8 10 11 0 2 -4 4 -10 4 -5 0 -10
-5 -10 -11z"/>
<path d="M995 1550 c-3 -5 -1 -10 4 -10 6 0 11 5 11 10 0 6 -2 10 -4 10 -3 0
-8 -4 -11 -10z"/>
<path d="M976 1518 c-11 -6 -31 -12 -45 -13 -14 -1 -39 -7 -56 -14 -16 -7 -42
-14 -58 -16 -15 -1 -30 -5 -34 -9 -3 -3 -15 -6 -25 -6 -13 0 -17 -4 -12 -12 5
-9 2 -9 -9 1 -11 9 -17 10 -17 2 0 -6 -3 -10 -8 -8 -4 1 -18 -8 -32 -20 -13
-13 -27 -23 -31 -23 -14 0 -127 -147 -139 -182 -9 -25 -17 -34 -22 -25 -5 8
-8 7 -8 -6 0 -10 -6 -20 -14 -23 -8 -3 -12 -12 -9 -20 3 -9 -2 -14 -16 -14
-12 0 -21 -5 -21 -11 0 -5 4 -8 9 -5 5 4 7 -3 4 -14 -3 -11 -11 -20 -18 -20
-8 0 -11 -8 -8 -20 4 -14 0 -20 -10 -20 -10 0 -13 -6 -10 -20 3 -12 2 -20 -3
-19 -24 4 -25 -3 -4 -26 13 -14 19 -25 13 -25 -6 0 -14 6 -16 13 -3 7 -6 5 -6
-5 -1 -10 3 -18 7 -18 5 0 9 -7 9 -15 0 -8 -4 -15 -8 -15 -3 0 -9 -11 -11 -25
-3 -14 -1 -25 3 -25 12 0 11 -47 -1 -55 -6 -3 -8 -18 -5 -33 4 -23 4 -24 -4
-7 -9 18 -10 18 -10 -7 -1 -22 3 -26 24 -23 14 1 25 -1 25 -6 0 -4 9 -6 20 -4
11 2 18 0 15 -6 -4 -5 4 -13 16 -17 16 -6 19 -11 10 -17 -8 -4 -16 -2 -21 5
-4 6 -11 12 -16 13 -5 1 -8 6 -6 11 2 5 -4 4 -12 -4 -9 -7 -16 -18 -16 -24 0
-6 5 -4 10 4 8 12 10 12 10 -5 0 -26 -48 -51 -56 -30 -3 8 -14 17 -24 20 -11
3 -17 12 -14 19 5 13 -39 42 -53 33 -4 -3 -17 2 -28 10 -16 13 -17 15 -2 10
11 -4 17 -1 17 7 0 15 -27 29 -40 21 -4 -3 -11 2 -14 11 -4 11 -14 15 -31 12
-20 -4 -23 -3 -14 8 8 10 8 14 0 14 -6 0 -11 7 -11 15 0 7 -7 18 -16 23 -10 6
-16 24 -17 51 -2 35 -5 41 -19 37 -20 -5 -34 9 -18 19 17 10 2 24 -20 18 -16
-4 -18 -9 -9 -24 5 -11 6 -19 2 -18 -20 3 -29 -3 -29 -20 0 -11 5 -17 10 -14
5 4 7 -1 3 -10 -3 -9 -2 -19 4 -22 5 -4 7 -10 4 -15 -3 -5 3 -15 14 -22 19
-11 19 -14 4 -30 -9 -10 -13 -21 -10 -25 4 -3 7 -1 7 5 0 7 5 12 11 12 5 0 7
-5 3 -12 -4 -6 -3 -8 4 -4 18 11 43 -25 41 -58 -2 -17 1 -38 5 -45 6 -10 5
-12 -2 -7 -8 5 -10 1 -5 -9 3 -10 0 -21 -8 -26 -10 -6 -7 -9 13 -9 15 0 30 -5
33 -10 4 -6 11 -8 16 -5 8 6 13 -8 10 -27 0 -5 6 -8 14 -8 8 0 17 -11 21 -24
4 -16 11 -22 23 -19 11 3 18 -1 18 -11 0 -8 -3 -15 -6 -14 -3 0 -16 -3 -29 -7
-18 -6 -20 -10 -11 -21 6 -8 16 -11 23 -7 24 16 34 10 32 -16 -2 -18 -10 -27
-25 -29 -11 -2 -21 -8 -21 -14 0 -6 3 -8 6 -5 4 3 15 2 24 -3 13 -7 25 -4 44
11 15 12 26 17 25 12 -3 -20 2 -34 11 -28 6 3 13 -1 16 -9 3 -9 14 -16 24 -16
10 0 26 -7 35 -16 8 -9 22 -14 29 -11 15 6 36 -11 36 -28 0 -5 -4 -3 -10 5 -5
8 -13 11 -17 6 -4 -4 1 -14 11 -22 15 -11 22 -11 34 -1 17 14 74 19 66 6 -3
-5 5 -9 18 -10 13 0 33 -2 46 -5 17 -3 21 -1 16 8 -5 9 -2 9 9 -1 9 -7 17 -9
17 -3 0 5 9 8 20 5 11 -3 20 -10 20 -16 0 -5 9 -2 19 7 11 10 25 15 32 10 7
-4 10 -3 5 4 -4 6 1 10 13 9 11 -1 18 -3 16 -5 -6 -6 22 -32 35 -32 6 0 8 4 5
10 -3 5 1 10 9 10 11 0 13 6 9 18 -6 15 -5 15 12 -2 14 -14 16 -21 7 -24 -7
-2 -10 -8 -7 -12 8 -12 54 9 84 38 14 12 30 21 38 18 7 -3 13 -1 13 4 0 6 9
10 20 10 19 0 25 14 21 47 -1 7 7 9 19 6 19 -5 20 -6 3 -20 -17 -13 -16 -13 7
-11 18 2 28 -4 38 -25 11 -23 16 -26 28 -16 12 10 12 14 2 20 -10 7 -10 9 -1
9 7 0 12 3 12 8 -3 19 2 23 15 13 11 -9 16 -9 22 0 4 8 3 9 -4 5 -7 -4 -12 -4
-13 1 -8 72 -6 79 18 81 14 1 22 -2 18 -8 -4 -6 -11 -8 -16 -5 -15 10 -10 -2
8 -16 11 -10 14 -10 9 -1 -4 7 -1 12 9 12 9 0 13 -5 10 -10 -3 -6 -1 -10 5
-10 6 0 10 6 8 12 -4 23 12 69 22 63 6 -3 19 -8 30 -10 16 -3 20 2 20 21 0 13
5 24 12 24 6 0 8 3 5 7 -4 3 1 12 11 19 22 17 30 17 29 2 -1 -46 2 -49 31 -34
18 9 33 11 44 5 11 -6 19 -6 23 1 3 5 1 11 -4 11 -26 3 -30 4 -37 12 -4 4 -2
7 5 7 8 0 11 7 7 15 -3 8 -1 15 3 15 5 0 11 7 15 15 3 9 0 15 -10 15 -9 0 -12
-5 -8 -12 5 -7 3 -8 -6 -3 -10 6 -9 11 4 21 13 9 14 13 4 17 -11 4 -11 6 0 6
15 1 49 -29 44 -38 -2 -3 1 -7 6 -9 14 -4 25 33 17 58 -4 12 -2 20 5 20 6 0 8
-4 5 -10 -9 -14 4 -12 18 3 7 6 12 23 12 37 0 21 4 25 29 24 24 -1 27 1 15 10
-16 13 -24 66 -10 66 6 0 7 -7 4 -17 -4 -11 -3 -14 5 -9 15 9 16 43 2 51 -5 3
-10 12 -10 18 0 7 4 6 10 -3 8 -12 10 -9 10 11 0 54 61 98 155 113 47 8 55 15
59 49 1 14 9 34 17 43 11 13 11 18 2 21 -8 3 -11 15 -8 31 l5 27 -11 -27 c-13
-35 -28 -36 -24 -3 2 20 0 23 -12 14 -11 -9 -12 -9 -7 5 4 10 0 18 -10 22 -9
3 -14 10 -11 15 3 4 12 6 20 2 8 -3 15 0 15 6 0 7 -13 17 -29 22 -21 7 -28 15
-24 28 3 11 0 22 -6 25 -6 4 -11 12 -11 18 0 7 6 6 15 -2 8 -7 15 -24 15 -37
0 -22 4 -25 25 -21 15 3 22 1 18 -5 -4 -6 0 -8 10 -4 9 3 18 1 20 -6 3 -9 8
-8 18 2 12 12 12 13 0 6 -11 -6 -13 -4 -7 10 4 12 0 22 -14 32 -11 8 -20 20
-20 26 0 7 4 6 10 -3 5 -8 12 -11 16 -7 9 9 -36 58 -47 52 -4 -3 -10 8 -14 25
-6 27 -10 30 -39 27 -18 -2 -38 -7 -44 -11 -16 -10 -15 17 0 32 7 7 8 12 2 12
-6 0 -16 -10 -22 -22 -6 -13 -11 -17 -11 -10 -1 6 -10 12 -22 12 -11 0 -17 5
-14 10 9 14 -8 13 -23 -2 -9 -9 -12 -9 -12 2 0 11 -12 15 -40 17 -22 0 -52 9
-67 18 -14 9 -22 12 -19 6 4 -6 2 -11 -3 -11 -6 0 -11 5 -11 10 0 14 -43 12
-59 -2 -11 -10 -13 -10 -7 0 9 14 -17 16 -43 3 -11 -6 -22 -6 -32 1 -11 8 -11
9 4 4 24 -8 22 20 -2 34 -25 13 -28 13 -28 -4 0 -8 8 -12 21 -9 20 3 21 3 1
-6 -29 -14 -33 -13 -40 9 -7 22 -35 26 -66 10 -13 -7 -19 -7 -19 0 0 5 -5 10
-11 10 -5 0 -7 -5 -3 -12 4 -7 3 -8 -5 -4 -17 11 -73 -3 -65 -16 4 -6 2 -8 -4
-5 -12 8 -44 -2 -38 -12 3 -4 -5 -8 -17 -8 -12 -1 -17 1 -11 5 13 8 3 44 -11
42 -5 -1 -11 4 -13 12 -2 8 0 9 5 3 4 -5 19 -11 33 -12 14 -1 19 1 13 3 -7 3
-13 12 -13 20 0 17 -8 17 -34 2z m239 -38 c-3 -5 -10 -10 -16 -10 -5 0 -9 5
-9 10 0 6 7 10 16 10 8 0 12 -4 9 -10z m585 -390 c0 -5 -4 -10 -10 -10 -5 0
-10 5 -10 10 0 6 5 10 10 10 6 0 10 -4 10 -10z m-208 -124 c-7 -11 -8 -16 -11
-36 0 -5 -9 -10 -18 -10 -14 0 -15 2 -5 9 7 4 14 17 15 28 0 11 7 20 14 20 6
0 9 -5 5 -11z m-1195 -201 c0 -8 -4 -12 -9 -9 -5 3 -6 10 -3 15 9 13 12 11 12
-6z m1109 -32 c-10 -10 -19 5 -10 18 6 11 8 11 12 0 2 -7 1 -15 -2 -18z m-412
-23 c-12 -5 -25 -13 -29 -19 -3 -6 -11 -11 -17 -11 -6 0 -3 9 8 19 10 11 28
20 39 20 19 0 19 -1 -1 -9z m-426 -24 c-19 -14 -13 -30 6 -19 24 16 35 12 23
-7 -6 -10 -14 -17 -18 -14 -4 2 -13 -4 -19 -13 -9 -15 -10 -15 -4 5 l6 24 -22
-22 c-18 -18 -24 -19 -38 -8 -9 7 -20 18 -24 23 -5 6 -8 4 -8 -4 0 -11 -4 -10
-16 5 -15 19 -16 19 -9 -1 5 -16 4 -17 -6 -8 -9 9 -16 9 -25 2 -9 -8 -11 -5
-7 11 3 13 11 19 19 16 8 -3 14 0 15 7 0 9 2 9 6 -1 2 -6 8 -10 13 -7 5 3 14
-1 22 -8 7 -7 19 -12 26 -11 6 1 19 2 28 3 8 0 13 5 9 10 -3 6 3 14 12 20 25
15 31 13 11 -3z m327 5 c3 -5 2 -12 -3 -15 -5 -3 -9 1 -9 9 0 17 3 19 12 6z
m98 -10 c-3 -10 0 -22 6 -25 6 -4 11 -13 11 -19 0 -7 -5 -4 -11 7 -9 15 -13
16 -20 5 -6 -10 -9 -11 -9 -1 0 6 -4 12 -10 12 -5 0 -7 -6 -4 -14 4 -11 0 -13
-17 -9 -21 6 -21 7 -3 20 10 7 24 11 30 9 7 -3 14 4 17 15 3 10 7 19 10 19 3
0 3 -8 0 -19z m-602 -10 c5 8 9 9 9 3 0 -7 -11 -19 -24 -27 -23 -16 -23 -15
-12 8 6 13 13 19 15 14 2 -7 7 -6 12 2z m348 2 c-3 -19 2 -33 12 -33 5 0 7 5
4 10 -3 6 -1 10 4 10 6 0 11 -4 11 -9 0 -5 13 -11 29 -13 17 -2 28 -1 26 2 -3
4 5 16 16 26 20 18 20 18 10 -8 -5 -14 -7 -29 -4 -32 4 -3 1 -6 -5 -6 -7 0
-11 -6 -9 -12 1 -7 -6 -12 -15 -10 -10 2 -18 -1 -18 -6 0 -14 33 -10 50 6 17
17 23 45 8 36 -7 -4 -8 -2 -4 5 4 6 12 9 17 5 6 -3 20 2 32 13 22 18 22 18 5
-3 -24 -28 -23 -34 7 -28 15 2 25 0 25 -7 0 -6 7 -8 16 -5 9 3 12 2 9 -5 -4
-6 -13 -8 -21 -5 -9 4 -14 -2 -14 -15 0 -18 -5 -21 -30 -17 -17 3 -34 0 -37
-5 -3 -6 -1 -7 5 -3 7 4 12 1 12 -8 0 -20 -5 -20 -26 1 -16 17 -17 16 -12 -9
3 -15 1 -25 -3 -22 -5 3 -9 12 -9 20 0 8 -5 14 -11 14 -5 0 -8 -4 -4 -9 3 -5
0 -13 -6 -17 -8 -4 -9 -3 -5 4 10 16 -6 15 -24 0 -8 -7 -7 -4 2 7 16 19 15 20
-6 20 -13 0 -22 -5 -19 -11 2 -6 -3 -14 -12 -18 -9 -3 -13 -11 -9 -17 4 -8 3
-9 -5 -5 -6 4 -9 11 -6 15 2 5 -5 17 -17 27 -12 11 -18 14 -15 8 4 -7 0 -14
-8 -18 -18 -6 -30 10 -13 18 7 3 3 3 -10 0 -15 -4 -24 0 -28 10 -5 12 -17 15
-55 12 -29 -2 -47 0 -43 5 3 5 9 7 14 4 5 -3 12 4 15 16 6 17 9 19 16 8 5 -8
9 -9 9 -3 0 7 8 15 18 19 14 5 15 4 5 -6 -18 -18 -16 -25 7 -26 11 -1 18 2 15
8 -4 5 0 9 7 9 9 0 9 3 -2 10 -11 8 -7 9 15 4 26 -6 63 -40 58 -54 0 -3 5 -11
13 -18 22 -20 16 1 -10 37 -25 34 -25 64 0 54 8 -3 14 -2 13 3 -2 13 0 24 6
24 3 0 4 -3 4 -7z m83 -15 c-7 -7 -12 -8 -12 -2 0 14 12 26 19 19 2 -3 -1 -11
-7 -17z m218 12 c0 -5 -5 -10 -11 -10 -5 0 -7 5 -4 10 3 6 8 10 11 10 2 0 4
-4 4 -10z m-680 -4 c0 -2 -7 -7 -16 -10 -8 -3 -12 -2 -9 4 6 10 25 14 25 6z
m140 -48 c0 -11 -22 -10 -40 2 -11 8 -9 9 13 8 15 -1 27 -6 27 -10z m783 -29
c4 -3 2 -11 -6 -18 -12 -9 -14 -7 -14 14 0 14 2 22 6 18 3 -4 10 -10 14 -14z
m-668 -19 c3 -5 1 -10 -4 -10 -6 0 -11 5 -11 10 0 6 2 10 4 10 3 0 8 -4 11
-10z m102 -246 c-3 -3 -12 -4 -19 -1 -8 3 -5 6 6 6 11 1 17 -2 13 -5z"/>
<path d="M975 601 c-3 -6 -5 -11 -3 -12 36 -8 49 -7 46 3 -6 17 -34 22 -43 9z"/>
<path d="M770 589 c0 -5 5 -7 10 -4 6 3 10 8 10 11 0 2 -4 4 -10 4 -5 0 -10
-5 -10 -11z"/>
<path d="M860 590 c-9 -6 -10 -10 -3 -10 6 0 15 5 18 10 8 12 4 12 -15 0z"/>
<path d="M1020 1516 c0 -2 7 -7 16 -10 8 -3 12 -2 9 4 -6 10 -25 14 -25 6z"/>
<path d="M745 1501 c-3 -5 -1 -12 4 -15 5 -3 11 1 15 9 6 16 -9 21 -19 6z"/>
<path d="M332 1488 c-19 -19 -14 -26 13 -20 14 2 25 9 25 14 0 5 -4 7 -9 4 -5
-4 -11 -1 -13 4 -2 7 -8 6 -16 -2z"/>
<path d="M1561 1474 c0 -11 3 -14 6 -6 3 7 2 16 -1 19 -3 4 -6 -2 -5 -13z"/>
<path d="M213 1394 c-25 -27 -29 -44 -13 -44 6 0 13 0 18 0 4 0 8 8 8 18 3 35
4 37 14 22 8 -12 10 -11 10 8 0 29 -10 28 -37 -4z"/>
<path d="M1786 1351 c-8 -12 16 -39 39 -43 15 -2 21 3 23 25 3 24 0 27 -27 27
-16 0 -32 -4 -35 -9z"/>
<path d="M325 1330 c-3 -5 -1 -10 4 -10 6 0 11 5 11 10 0 6 -2 10 -4 10 -3 0
-8 -4 -11 -10z"/>
<path d="M167 1285 c6 -49 12 -56 20 -27 3 12 9 22 13 22 5 0 7 8 5 18 -2 9
-4 19 -4 22 -1 3 -10 6 -20 6 -17 0 -19 -5 -14 -41z"/>
<path d="M371 1257 c-9 -11 -8 -17 4 -27 12 -10 16 -9 21 5 9 23 -10 40 -25
22z"/>
<path d="M415 1240 c-3 -5 -1 -10 4 -10 6 0 11 5 11 10 0 6 -2 10 -4 10 -3 0
-8 -4 -11 -10z"/>
<path d="M391 1201 c-8 -6 -9 -11 -3 -15 6 -3 14 -1 17 5 9 14 2 20 -14 10z"/>
<path d="M130 1175 c0 -29 15 -33 29 -6 11 20 5 31 -16 31 -7 0 -13 -11 -13
-25z"/>
<path d="M1811 1191 c-8 -6 -9 -11 -3 -15 6 -3 14 -1 17 5 9 14 2 20 -14 10z"/>
<path d="M132 1113 c0 -18 3 -33 8 -33 5 0 6 7 3 17 -4 10 -2 14 4 10 6 -4 13
2 16 14 4 16 3 18 -8 9 -10 -8 -14 -7 -17 2 -3 7 -5 -2 -6 -19z"/>
<path d="M53 1075 c2 -30 -1 -59 -6 -64 -6 -6 -7 -14 -2 -18 4 -5 10 -2 12 5
3 6 8 10 13 7 4 -3 10 4 13 15 3 13 1 18 -5 13 -7 -4 -8 -1 -2 8 14 23 13 39
-2 39 -8 0 -14 4 -14 10 0 5 6 7 14 4 10 -4 14 1 13 15 -1 13 -8 21 -20 21
-15 0 -17 -7 -14 -55z"/>
<path d="M325 920 c-3 -5 -1 -10 4 -10 6 0 11 5 11 10 0 6 -2 10 -4 10 -3 0
-8 -4 -11 -10z"/>
<path d="M135 890 c-3 -6 1 -7 9 -4 18 7 21 14 7 14 -6 0 -13 -4 -16 -10z"/>
<path d="M170 859 c0 -5 5 -7 10 -4 6 3 10 8 10 11 0 2 -4 4 -10 4 -5 0 -10
-5 -10 -11z"/>
<path d="M320 810 c-8 -5 -10 -10 -5 -10 6 0 17 5 25 10 8 5 11 10 5 10 -5 0
-17 -5 -25 -10z"/>
<path d="M260 750 c0 -6 7 -10 15 -10 8 0 15 2 15 4 0 2 -7 6 -15 10 -8 3 -15
1 -15 -4z"/>
<path d="M320 742 c0 -5 9 -17 20 -27 11 -10 17 -23 13 -29 -4 -6 1 -5 10 3
16 13 15 15 -8 37 -28 26 -35 29 -35 16z"/>
<path d="M365 669 c-4 -6 -5 -12 -2 -15 2 -3 7 2 10 11 7 17 1 20 -8 4z"/>
<path d="M1450 600 c0 -5 5 -10 11 -10 5 0 7 5 4 10 -3 6 -8 10 -11 10 -2 0
-4 -4 -4 -10z"/>
<path d="M175 559 c-4 -6 -4 -13 -1 -16 3 -4 6 -1 6 6 0 7 5 9 12 5 7 -4 8 -3
4 4 -9 15 -13 15 -21 1z"/>
<path d="M1348 500 c-14 -16 -23 -32 -20 -34 3 -3 10 1 16 10 6 8 21 16 33 17
18 1 20 4 10 17 -6 8 -12 16 -12 17 -1 1 -13 -11 -27 -27z"/>
<path d="M1646 425 c-3 -8 -1 -15 4 -15 13 0 22 18 11 24 -5 3 -11 -1 -15 -9z"/>
<path d="M1177 353 c-4 -3 -7 -11 -7 -17 0 -6 5 -5 12 2 6 6 9 14 7 17 -3 3
-9 2 -12 -2z"/>
<path d="M1015 340 c-3 -6 1 -7 9 -4 18 7 21 14 7 14 -6 0 -13 -4 -16 -10z"/>
<path d="M1050 340 c0 -5 5 -10 11 -10 5 0 7 5 4 10 -3 6 -8 10 -11 10 -2 0
-4 -4 -4 -10z"/>
<path d="M1365 319 c-10 -15 1 -23 20 -15 9 3 13 10 10 16 -8 13 -22 13 -30
-1z"/>
<path d="M1020 310 c0 -5 7 -7 15 -4 8 4 15 8 15 10 0 2 -7 4 -15 4 -8 0 -15
-4 -15 -10z"/>
<path d="M1300 289 c0 -5 5 -7 10 -4 6 3 10 8 10 11 0 2 -4 4 -10 4 -5 0 -10
-5 -10 -11z"/>
</g>
</svg>
